<svg width="20" height="20" viewBox="0 0 20 20" fill="none" xmlns="http://www.w3.org/2000/svg">
<path d="M13.3333 10.625H6.66666C6.32499 10.625 6.04166 10.3417 6.04166 10C6.04166 9.65833 6.32499 9.375 6.66666 9.375H13.3333C13.675 9.375 13.9583 9.65833 13.9583 10C13.9583 10.3417 13.675 10.625 13.3333 10.625Z" fill="white"/>
<path d="M10 13.9583C9.65833 13.9583 9.375 13.675 9.375 13.3333V6.66666C9.375 6.32499 9.65833 6.04166 10 6.04166C10.3417 6.04166 10.625 6.32499 10.625 6.66666V13.3333C10.625 13.675 10.3417 13.9583 10 13.9583Z" fill="white"/>
<path d="M12.5 18.9583H7.49999C2.97499 18.9583 1.04166 17.025 1.04166 12.5V7.49999C1.04166 2.97499 2.97499 1.04166 7.49999 1.04166H12.5C17.025 1.04166 18.9583 2.97499 18.9583 7.49999V12.5C18.9583 17.025 17.025 18.9583 12.5 18.9583ZM7.49999 2.29166C3.65832 2.29166 2.29166 3.65832 2.29166 7.49999V12.5C2.29166 16.3417 3.65832 17.7083 7.49999 17.7083H12.5C16.3417 17.7083 17.7083 16.3417 17.7083 12.5V7.49999C17.7083 3.65832 16.3417 2.29166 12.5 2.29166H7.49999Z" fill="white"/>
</svg>
