<svg width="34" height="34" viewBox="0 0 34 34" fill="none" xmlns="http://www.w3.org/2000/svg">
<path d="M17 0.333332C7.81665 0.333332 0.333313 7.81666 0.333313 17C0.333313 26.1833 7.81665 33.6667 17 33.6667C26.1833 33.6667 33.6666 26.1833 33.6666 17C33.6666 7.81666 26.1833 0.333332 17 0.333332ZM19.9833 22C20.4666 22.4833 20.4666 23.2833 19.9833 23.7667C19.7333 24.0167 19.4166 24.1333 19.1 24.1333C18.7833 24.1333 18.4666 24.0167 18.2166 23.7667L12.3333 17.8833C11.85 17.4 11.85 16.6 12.3333 16.1167L18.2166 10.2333C18.7 9.75 19.5 9.75 19.9833 10.2333C20.4666 10.7167 20.4666 11.5167 19.9833 12L14.9833 17L19.9833 22Z" fill="#F9FAFC"/>
</svg>
