<svg width="25" height="25" viewBox="0 0 25 25" fill="none" xmlns="http://www.w3.org/2000/svg">
<path d="M16.7566 4.52863L16.7537 2.96863C16.7529 2.55863 16.4123 2.21927 16.0023 2.22004C15.5923 2.22081 15.2529 2.56144 15.2537 2.97144L15.2565 4.47144L8.75651 4.48361L8.7537 2.98361C8.75293 2.57361 8.4123 2.23425 8.0023 2.23501C7.5923 2.23578 7.25293 2.57642 7.2537 2.98642L7.25662 4.54641C4.55709 4.80147 3.25011 6.41392 3.05458 8.80429C3.03513 9.09432 3.27558 9.33387 3.55558 9.33335L20.4755 9.30168C20.7655 9.30113 21.0051 9.05069 20.9746 8.77074C20.7701 6.38112 19.4571 4.77358 16.7566 4.52863Z" fill="white" stroke="white" stroke-width="0.420473"/>
<path d="M20.0184 10.8025L4.01843 10.8325C3.46843 10.8335 3.01927 11.2844 3.0203 11.8344L3.03184 17.9944C3.03745 20.9943 4.54119 22.9915 8.04119 22.985L16.0412 22.97C19.5412 22.9635 21.0374 20.9607 21.0318 17.9607L21.0203 11.8007C21.0192 11.2507 20.5684 10.8015 20.0184 10.8025ZM9.24409 19.1927C9.19416 19.2328 9.14426 19.2829 9.09432 19.313C9.03439 19.3531 8.97445 19.3832 8.91448 19.4033C8.85454 19.4335 8.79458 19.4536 8.7346 19.4637C8.66461 19.4738 8.60463 19.4839 8.53463 19.4841C8.40463 19.4843 8.27458 19.4545 8.15448 19.4048C8.02439 19.355 7.92426 19.2852 7.82409 19.1954C7.64374 19.0057 7.53325 18.7459 7.53276 18.4859C7.53228 18.2259 7.64179 17.9657 7.82143 17.7754C7.92127 17.6852 8.02113 17.615 8.15104 17.5648C8.33089 17.4844 8.53085 17.4641 8.73093 17.5037C8.79095 17.5136 8.85098 17.5335 8.91104 17.5633C8.97108 17.5832 9.03113 17.6131 9.09121 17.653C9.14128 17.6929 9.19136 17.7328 9.24143 17.7727C9.42179 17.9624 9.53227 18.2222 9.53276 18.4822C9.53325 18.7422 9.42373 19.0024 9.24409 19.1927ZM9.23754 15.6927C9.04788 15.8731 8.78808 15.9836 8.52808 15.9841C8.26808 15.9845 8.00788 15.875 7.81754 15.6954C7.63719 15.5057 7.5267 15.2459 7.52621 14.9859C7.52573 14.7259 7.63524 14.4657 7.81488 14.2754C8.09436 13.9949 8.53419 13.904 8.90449 14.0634C9.03458 14.1131 9.14471 14.1829 9.23488 14.2727C9.41524 14.4624 9.52572 14.7222 9.52621 14.9822C9.5267 15.2422 9.41718 15.5024 9.23754 15.6927ZM12.7441 19.1862C12.5544 19.3665 12.2946 19.477 12.0346 19.4775C11.7746 19.478 11.5144 19.3685 11.3241 19.1888C11.1437 18.9992 11.0332 18.7394 11.0328 18.4794C11.0323 18.2194 11.1418 17.9592 11.3214 17.7688C11.6907 17.3981 12.3707 17.3969 12.7414 17.7662C12.9218 17.9558 13.0323 18.2156 13.0328 18.4756C13.0332 18.7356 12.9237 18.9958 12.7441 19.1862ZM12.7375 15.6862C12.6876 15.7263 12.6377 15.7664 12.5878 15.8065C12.5278 15.8466 12.4679 15.8767 12.4079 15.8968C12.348 15.9269 12.288 15.947 12.228 15.9571C12.1581 15.9673 12.0981 15.9774 12.0281 15.9775C11.7681 15.978 11.5079 15.8685 11.3175 15.6888C11.1372 15.4992 11.0267 15.2394 11.0262 14.9794C11.0257 14.7194 11.1352 14.4592 11.3149 14.2688C11.4047 14.1787 11.5146 14.1085 11.6445 14.0582C12.0142 13.8975 12.4544 13.9867 12.7349 14.2662C12.9152 14.4558 13.0257 14.7156 13.0262 14.9756C13.0267 15.2356 12.9172 15.4958 12.7375 15.6862ZM16.2441 19.1796C16.0544 19.36 15.7946 19.4705 15.5346 19.471C15.2746 19.4714 15.0144 19.3619 14.8241 19.1823C14.6437 18.9926 14.5332 18.7328 14.5328 18.4728C14.5323 18.2128 14.6418 17.9526 14.8214 17.7623C15.1907 17.3916 15.8707 17.3903 16.2414 17.7596C16.4218 17.9493 16.5323 18.2091 16.5327 18.4691C16.5332 18.7291 16.4237 18.9893 16.2441 19.1796ZM16.2375 15.6796C16.1876 15.7197 16.1377 15.7598 16.0878 15.7999C16.0278 15.84 15.9679 15.8701 15.9079 15.8902C15.848 15.9204 15.788 15.9405 15.728 15.9506C15.6581 15.9607 15.5881 15.9708 15.5281 15.971C15.2681 15.9714 15.0079 15.8619 14.8175 15.6823C14.6372 15.4926 14.5267 15.2328 14.5262 14.9728C14.5257 14.7128 14.6352 14.4526 14.8149 14.2623C14.9147 14.1721 15.0146 14.1019 15.1445 14.0517C15.3243 13.9713 15.5243 13.951 15.7244 13.9906C15.7844 14.0005 15.8444 14.0204 15.9045 14.0502C15.9645 14.0701 16.0246 14.1 16.0846 14.1399C16.1347 14.1798 16.1848 14.2197 16.2349 14.2596C16.4152 14.4493 16.5257 14.7091 16.5262 14.9691C16.5267 15.2291 16.4172 15.4893 16.2375 15.6796Z" fill="white" stroke="white" stroke-width="0.420473"/>
</svg>
