<svg width="72" height="72" viewBox="0 0 72 72" fill="none" xmlns="http://www.w3.org/2000/svg">
<path d="M46.125 28.125L28.125 46.125C27.51 46.74 26.49 46.74 25.875 46.125C25.26 45.51 25.26 44.49 25.875 43.875L43.875 25.875C44.49 25.26 45.51 25.26 46.125 25.875C46.74 26.49 46.74 27.51 46.125 28.125Z" fill="white"/>
<path d="M46.125 46.125C45.51 46.74 44.49 46.74 43.875 46.125L25.875 28.125C25.26 27.51 25.26 26.49 25.875 25.875C26.49 25.26 27.51 25.26 28.125 25.875L46.125 43.875C46.74 44.49 46.74 45.51 46.125 46.125Z" fill="white"/>
</svg>
