<svg width="21" height="21" viewBox="0 0 21 21" fill="none" xmlns="http://www.w3.org/2000/svg">
<path d="M15.5006 10.7741L14.4872 9.76072C14.2463 9.55306 14.1051 9.24572 14.0968 8.90515C14.0801 8.53135 14.2297 8.15756 14.5038 7.88344L15.5006 6.88665C16.3645 6.02277 16.6884 5.19212 16.4143 4.5359C16.1485 3.88799 15.3261 3.53081 14.1134 3.53081H5.43303V2.81644C5.43303 2.47587 5.1506 2.19345 4.81003 2.19345C4.46947 2.19345 4.18704 2.47587 4.18704 2.81644V18.1836C4.18704 18.5241 4.46947 18.8066 4.81003 18.8066C5.1506 18.8066 5.43303 18.5241 5.43303 18.1836V14.13H14.1134C15.3095 14.13 16.1153 13.7645 16.3894 13.1083C16.6635 12.452 16.3478 11.6297 15.5006 10.7741Z" fill="#39BA62"/>
</svg>
