<svg width="22" height="23" viewBox="0 0 22 23" fill="none" xmlns="http://www.w3.org/2000/svg">
<path d="M15.0362 2.71863H12.7091C9.84508 2.71863 8.05505 4.50865 8.05505 7.37269V10.9975H12.0289L10.1762 9.14482C10.042 9.01057 9.97933 8.84051 9.97933 8.67046C9.97933 8.50041 10.042 8.33036 10.1762 8.1961C10.4358 7.93655 10.8654 7.93655 11.1249 8.1961L14.1232 11.1944C14.3828 11.4539 14.3828 11.8836 14.1232 12.1431L11.1249 15.1414C10.8654 15.401 10.4358 15.401 10.1762 15.1414C9.91668 14.8818 9.91668 14.4522 10.1762 14.1927L12.0289 12.34H8.05505V15.9648C8.05505 18.8289 9.84508 20.6189 12.7091 20.6189H15.0272C17.8912 20.6189 19.6813 18.8289 19.6813 15.9648V7.37269C19.6902 4.50865 17.9002 2.71863 15.0362 2.71863Z" fill="white"/>
<path d="M2.4613 10.9975C2.09434 10.9975 1.79004 11.3018 1.79004 11.6688C1.79004 12.0357 2.09434 12.34 2.4613 12.34H8.05513V10.9975H2.4613Z" fill="white"/>
</svg>
