<svg width="44" height="44" viewBox="0 0 44 44" fill="none" xmlns="http://www.w3.org/2000/svg">
<rect width="44" height="44" rx="4.90584" fill="#F0EBFF"/>
<path d="M22.5061 33.8249C22.3191 33.8249 22.1321 33.8249 21.9451 33.8139C15.7851 33.5389 10.6371 28.5779 10.2081 22.5279C9.83406 17.3359 12.8371 12.4849 17.6771 10.4499C19.0521 9.87791 19.7781 10.3179 20.0861 10.6369C20.3941 10.9449 20.8231 11.6599 20.2511 12.9689C19.7451 14.1349 19.4921 15.3779 19.5031 16.6539C19.5251 21.5269 23.5731 25.6629 28.5121 25.8609C29.2271 25.8939 29.9311 25.8389 30.6131 25.7179C32.0651 25.4539 32.6701 26.0369 32.9011 26.4109C33.1321 26.7849 33.3961 27.5879 32.5161 28.7759C30.1841 31.9659 26.4771 33.8249 22.5061 33.8249ZM11.8471 22.4069C12.2211 27.6429 16.6871 31.9329 22.0111 32.1639C25.6301 32.3399 29.0621 30.6899 31.1741 27.8079C31.3391 27.5769 31.4161 27.4119 31.4491 27.3239C31.3501 27.3129 31.1741 27.3019 30.8991 27.3569C30.0961 27.4999 29.2601 27.5549 28.4351 27.5219C22.6271 27.2909 17.8751 22.4179 17.8421 16.6759C17.8421 15.1579 18.1391 13.6949 18.7441 12.3199C18.8541 12.0779 18.8761 11.9129 18.8871 11.8249C18.7881 11.8249 18.6121 11.8469 18.3261 11.9679C14.1351 13.7279 11.5391 17.9299 11.8471 22.4069Z" fill="#6A35FF"/>
</svg>
