<svg width="44" height="44" viewBox="0 0 44 44" fill="none" xmlns="http://www.w3.org/2000/svg">
<rect width="44" height="44" rx="4.90584" fill="#F0EBFF"/>
<path d="M22.022 31.3829C19.459 31.3829 16.896 30.9759 14.465 30.1619C13.541 29.8429 12.837 29.1939 12.529 28.3469C12.21 27.4999 12.32 26.5649 12.826 25.7289L14.091 23.6279C14.355 23.1879 14.597 22.3079 14.597 21.7909V18.6119C14.597 14.5199 17.93 11.1869 22.022 11.1869C26.114 11.1869 29.447 14.5199 29.447 18.6119V21.7909C29.447 22.2969 29.689 23.1879 29.953 23.6389L31.207 25.7289C31.68 26.5209 31.768 27.4779 31.449 28.3469C31.13 29.2159 30.437 29.8759 29.568 30.1619C27.148 30.9759 24.585 31.3829 22.022 31.3829ZM22.022 12.8369C18.843 12.8369 16.247 15.4219 16.247 18.6119V21.7909C16.247 22.5939 15.917 23.7819 15.51 24.4749L14.245 26.5759C14.003 26.9829 13.937 27.4119 14.08 27.7749C14.212 28.1489 14.542 28.4349 14.993 28.5889C19.591 30.1289 24.464 30.1289 29.062 28.5889C29.458 28.4569 29.766 28.1599 29.909 27.7639C30.052 27.3679 30.019 26.9389 29.799 26.5759L28.534 24.4749C28.116 23.7599 27.797 22.5829 27.797 21.7799V18.6119C27.797 15.4219 25.212 12.8369 22.022 12.8369Z" fill="#6A35FF"/>
<path d="M24.0681 13.1339C23.9911 13.1339 23.9141 13.1229 23.8371 13.1009C23.5181 13.0129 23.2101 12.9469 22.9131 12.9029C21.9781 12.7819 21.0761 12.8479 20.2291 13.1009C19.9211 13.1999 19.5911 13.1009 19.3821 12.8699C19.1731 12.6389 19.1071 12.3089 19.2281 12.0119C19.6791 10.8569 20.7791 10.0979 22.0331 10.0979C23.2871 10.0979 24.3871 10.8459 24.8381 12.0119C24.9481 12.3089 24.8931 12.6389 24.6841 12.8699C24.5191 13.0459 24.2881 13.1339 24.0681 13.1339Z" fill="#6A35FF"/>
<path d="M22.0221 33.8909C20.9331 33.8909 19.8771 33.4509 19.1071 32.6809C18.3371 31.9109 17.8971 30.8549 17.8971 29.7659H19.5471C19.5471 30.4149 19.8111 31.0529 20.2731 31.5149C20.7351 31.9769 21.3731 32.2409 22.0221 32.2409C23.3861 32.2409 24.4971 31.1299 24.4971 29.7659H26.1471C26.1471 32.0429 24.2991 33.8909 22.0221 33.8909Z" fill="#6A35FF"/>
</svg>
