<svg width="18" height="18" viewBox="0 0 18 18" fill="none" xmlns="http://www.w3.org/2000/svg">
<path d="M8.2188 15.5442C4.18087 15.5442 0.893349 12.2567 0.893349 8.21879C0.893349 4.18086 4.18087 0.893341 8.2188 0.893341C12.2567 0.893341 15.5443 4.18086 15.5443 8.21879C15.5443 12.2567 12.2567 15.5442 8.2188 15.5442ZM8.2188 1.96536C4.76691 1.96536 1.96537 4.77404 1.96537 8.21879C1.96537 11.6635 4.76691 14.4722 8.2188 14.4722C11.6707 14.4722 14.4722 11.6635 14.4722 8.21879C14.4722 4.77404 11.6707 1.96536 8.2188 1.96536Z" fill="#8F67FF" stroke="#8F67FF" stroke-width="0.435264"/>
<path d="M15.7229 16.2589C15.5871 16.2589 15.4513 16.2089 15.3441 16.1017L13.9148 14.6723C13.7075 14.4651 13.7075 14.122 13.9148 13.9148C14.122 13.7075 14.4651 13.7075 14.6723 13.9148L16.1017 15.3441C16.309 15.5514 16.309 15.8944 16.1017 16.1017C15.9945 16.2089 15.8587 16.2589 15.7229 16.2589Z" fill="#8F67FF" stroke="#8F67FF" stroke-width="0.435264"/>
</svg>
