<svg width="21" height="21" viewBox="0 0 16 16" fill="none" xmlns="http://www.w3.org/2000/svg">
<path d="M9.4516 2.18993H5.78268C5.52878 2.18993 5.32565 1.98681 5.32565 1.73291C5.32565 1.479 5.52878 1.26953 5.78268 1.26953H9.4516C9.7055 1.26953 9.90862 1.47265 9.90862 1.72656C9.90862 1.98046 9.7055 2.18993 9.4516 2.18993Z" fill="#F56C22"/>
<path d="M12.6762 9.52142H10.81C10.0038 9.52142 9.52142 10.0038 9.52142 10.81V12.6762C9.52142 13.4823 10.0038 13.9647 10.81 13.9647H12.6762C13.4823 13.9647 13.9647 13.4823 13.9647 12.6762V10.81C13.9647 10.0038 13.4823 9.52142 12.6762 9.52142ZM12.4985 12.3525L11.7494 12.7841C11.5971 12.873 11.4447 12.9174 11.3051 12.9174C11.1972 12.9174 11.102 12.892 11.0131 12.8412C10.81 12.7206 10.6957 12.4858 10.6957 12.1747V11.3114C10.6957 11.0004 10.81 10.7656 11.0131 10.6449C11.2162 10.5243 11.4765 10.5497 11.7494 10.7021L12.4985 11.1337C12.7651 11.2924 12.9174 11.5082 12.9174 11.7431C12.9174 11.9779 12.7714 12.1938 12.4985 12.3525Z" fill="#F56C22"/>
<path d="M8.88667 12.6762V10.81C8.88667 9.66108 9.66107 8.88667 10.81 8.88667H12.6762C12.8222 8.88667 12.9618 8.89937 13.0951 8.92476C13.1078 8.77242 13.1205 8.62007 13.1205 8.46138C13.1205 5.42088 10.6513 2.95166 7.61714 2.95166C4.58299 2.95166 2.11377 5.42088 2.11377 8.46138C2.11377 11.4955 4.58299 13.9648 7.61714 13.9648C8.15669 13.9648 8.67085 13.8759 9.16596 13.7362C8.98823 13.4379 8.88667 13.0824 8.88667 12.6762ZM8.09321 8.25191C8.09321 8.51216 7.8774 8.72798 7.61714 8.72798C7.35689 8.72798 7.14107 8.51216 7.14107 8.25191V5.07811C7.14107 4.81786 7.35689 4.60204 7.61714 4.60204C7.8774 4.60204 8.09321 4.81786 8.09321 5.07811V8.25191Z" fill="#F56C22"/>
</svg>
