<svg width="19" height="18" viewBox="0 0 19 18" fill="none" xmlns="http://www.w3.org/2000/svg">
<path d="M9.13129 17.0335C4.69137 17.0335 1.08252 13.4246 1.08252 8.98469C1.08252 4.54476 4.69137 0.935913 9.13129 0.935913C13.5712 0.935913 17.1801 4.54476 17.1801 8.98469C17.1801 13.4246 13.5712 17.0335 9.13129 17.0335ZM9.13129 2.059C5.31281 2.059 2.2056 5.1662 2.2056 8.98469C2.2056 12.8032 5.31281 15.9104 9.13129 15.9104C12.9498 15.9104 16.057 12.8032 16.057 8.98469C16.057 5.1662 12.9498 2.059 9.13129 2.059Z" fill="#A0A6B1"/>
<path d="M11.9091 11.9272C11.8117 11.9272 11.7144 11.9047 11.6246 11.8448L9.30352 10.4597C8.727 10.1153 8.30023 9.35907 8.30023 8.69271V5.62294C8.30023 5.31597 8.5548 5.0614 8.86177 5.0614C9.16875 5.0614 9.42332 5.31597 9.42332 5.62294V8.69271C9.42332 8.96225 9.64793 9.35907 9.88004 9.49384L12.2011 10.879C12.4706 11.0362 12.553 11.3806 12.3957 11.6502C12.2834 11.8299 12.0963 11.9272 11.9091 11.9272Z" fill="#A0A6B1"/>
</svg>
