<svg width="24" height="24" viewBox="0 0 24 24" fill="none" xmlns="http://www.w3.org/2000/svg">
<path d="M22 8.51999V3.97998C22 2.56998 21.36 1.99998 19.77 1.99998H15.73C14.14 1.99998 13.5 2.56998 13.5 3.97998V8.50998C13.5 9.92999 14.14 10.49 15.73 10.49H19.77C21.36 10.5 22 9.92999 22 8.51999Z" fill="white" stroke="white" stroke-width="0.420473"/>
<path d="M22 19.77V15.73C22 14.14 21.36 13.5 19.77 13.5H15.73C14.14 13.5 13.5 14.14 13.5 15.73V19.77C13.5 21.36 14.14 22 15.73 22H19.77C21.36 22 22 21.36 22 19.77Z" fill="white" stroke="white" stroke-width="0.420473"/>
<path d="M10.5 8.51999V3.97998C10.5 2.56998 9.86 1.99998 8.27 1.99998H4.23C2.64 1.99998 2 2.56998 2 3.97998V8.50998C2 9.92999 2.64 10.49 4.23 10.49H8.27C9.86 10.5 10.5 9.92999 10.5 8.51999Z" fill="white" stroke="white" stroke-width="0.420473"/>
<path d="M10.5 19.77V15.73C10.5 14.14 9.86 13.5 8.27 13.5H4.23C2.64 13.5 2 14.14 2 15.73V19.77C2 21.36 2.64 22 4.23 22H8.27C9.86 22 10.5 21.36 10.5 19.77Z" fill="white" stroke="white" stroke-width="0.420473"/>
</svg>
