<svg width="14" height="15" viewBox="0 0 14 15" fill="none" xmlns="http://www.w3.org/2000/svg">
<path d="M7.00584 13.765C6.63834 13.765 6.27667 13.6425 5.99084 13.3975L5.06917 12.61C4.97584 12.5283 4.74251 12.4466 4.62001 12.4466H3.59917C2.73584 12.4466 2.03584 11.7466 2.03584 10.8833V9.88581C2.03584 9.76331 1.95417 9.52998 1.87834 9.44248L1.08501 8.50915C0.606674 7.94331 0.606674 7.05665 1.08501 6.48498L1.87834 5.55165C1.95417 5.46415 2.03584 5.23081 2.03584 5.10831V4.11665C2.03584 3.25331 2.73584 2.55331 3.59917 2.55331H4.60834C4.73084 2.55331 4.95834 2.46581 5.05751 2.38415L5.97917 1.59665C6.55084 1.11248 7.44334 1.11248 8.01501 1.59665L8.93667 2.38415C9.03001 2.46581 9.26917 2.54748 9.39167 2.54748H10.3833C11.2467 2.54748 11.9467 3.24748 11.9467 4.11081V5.10248C11.9467 5.22498 12.0342 5.45248 12.1158 5.55165L12.9033 6.47331C13.3933 7.05081 13.3875 7.94331 12.9033 8.50915L12.1158 9.43081C12.0342 9.52998 11.9525 9.75748 11.9525 9.87998V10.8716C11.9525 11.735 11.2525 12.435 10.3892 12.435H9.39751C9.27501 12.435 9.04751 12.5225 8.94251 12.6041L8.02084 13.3916C7.73501 13.6425 7.36751 13.765 7.00584 13.765ZM3.59917 3.42831C3.22001 3.42831 2.91084 3.73748 2.91084 4.11665V5.10831C2.91084 5.44081 2.75917 5.86081 2.54334 6.11748L1.75001 7.05081C1.55167 7.28998 1.55167 7.70998 1.75001 7.94331L2.53751 8.87081C2.74751 9.10998 2.90501 9.54748 2.90501 9.87998V10.8775C2.90501 11.2566 3.21417 11.5658 3.59334 11.5658H4.60834C4.93501 11.5658 5.36667 11.7233 5.62334 11.9391L6.55084 12.7325C6.79001 12.9366 7.21001 12.9366 7.44917 12.7325L8.37084 11.945C8.63334 11.7233 9.05917 11.5716 9.38584 11.5716H10.3775C10.7567 11.5716 11.0658 11.2625 11.0658 10.8833V9.89165C11.0658 9.56498 11.2233 9.13915 11.4392 8.87665L12.2325 7.94915C12.4367 7.70998 12.4367 7.28998 12.2325 7.05081L11.445 6.12915C11.2233 5.86665 11.0717 5.44081 11.0717 5.11415V4.11665C11.0717 3.73748 10.7625 3.42831 10.3833 3.42831H9.39167C9.05917 3.42831 8.62751 3.27081 8.37084 3.05498L7.44334 2.26165C7.20417 2.05748 6.79001 2.05748 6.54501 2.26165L5.62917 3.05498C5.36667 3.27081 4.94084 3.42831 4.60834 3.42831H3.59917Z" fill="#6C6C6C"/>
<path d="M7.00002 10.3409C6.67919 10.3409 6.41669 10.0784 6.41669 9.75753C6.41669 9.43669 6.67335 9.17419 7.00002 9.17419C7.32085 9.17419 7.58335 9.43669 7.58335 9.75753C7.58335 10.0784 7.32669 10.3409 7.00002 10.3409Z" fill="#6C6C6C"/>
<path d="M7 8.50339C6.76083 8.50339 6.5625 8.30505 6.5625 8.06589V5.24255C6.5625 5.00339 6.76083 4.80505 7 4.80505C7.23917 4.80505 7.4375 5.00339 7.4375 5.24255V8.06005C7.4375 8.30505 7.245 8.50339 7 8.50339Z" fill="#6C6C6C"/>
</svg>
