<svg width="26" height="26" viewBox="0 0 26 26" fill="none" xmlns="http://www.w3.org/2000/svg">
<path d="M12.9676 23.8332C18.9507 23.8332 23.8009 18.9829 23.8009 12.9998C23.8009 7.01675 18.9507 2.1665 12.9676 2.1665C6.98453 2.1665 2.13428 7.01675 2.13428 12.9998C2.13428 18.9829 6.98453 23.8332 12.9676 23.8332Z" fill="#6A35FF"/>
<path d="M11.6134 15.7407V10.259C11.6134 9.73904 11.3967 9.5332 10.8442 9.5332H9.43591C8.88341 9.5332 8.66675 9.73904 8.66675 10.259V15.7407C8.66675 16.2607 8.88341 16.4665 9.43591 16.4665H10.8334C11.3967 16.4665 11.6134 16.2607 11.6134 15.7407Z" fill="white"/>
<path d="M17.3333 15.7407V10.259C17.3333 9.73904 17.1166 9.5332 16.5641 9.5332H15.1666C14.6141 9.5332 14.3975 9.73904 14.3975 10.259V15.7407C14.3975 16.2607 14.6141 16.4665 15.1666 16.4665H16.5641C17.1166 16.4665 17.3333 16.2607 17.3333 15.7407Z" fill="white"/>
</svg>
