<svg width="20" height="19" viewBox="0 0 20 19" fill="none" xmlns="http://www.w3.org/2000/svg">
<path d="M7.70982 8.9233C7.68678 8.9233 7.67142 8.9233 7.64839 8.9233C7.60999 8.91562 7.55623 8.91562 7.51016 8.9233C5.28319 8.85419 3.60144 7.10333 3.60144 4.94547C3.60144 2.74922 5.3907 0.959961 7.58695 0.959961C9.78321 0.959961 11.5725 2.74922 11.5725 4.94547C11.5648 7.10333 9.87536 8.85419 7.73286 8.9233C7.72518 8.9233 7.7175 8.9233 7.70982 8.9233ZM7.58695 2.11184C6.02807 2.11184 4.75332 3.38659 4.75332 4.94547C4.75332 6.48131 5.95128 7.71767 7.47944 7.77142C7.52552 7.76374 7.62535 7.76374 7.72518 7.77142C9.2303 7.70231 10.4129 6.46596 10.4206 4.94547C10.4206 3.38659 9.14583 2.11184 7.58695 2.11184Z" fill="#A0A6B1"/>
<path d="M13.3771 9.02306C13.354 9.02306 13.331 9.02306 13.308 9.01538C12.9931 9.0461 12.6706 8.8234 12.6399 8.50855C12.6092 8.1937 12.8011 7.90957 13.116 7.87118C13.2081 7.8635 13.308 7.8635 13.3924 7.8635C14.5136 7.80206 15.389 6.88056 15.389 5.75171C15.389 4.58447 14.4445 3.63993 13.2772 3.63993C12.9624 3.64761 12.7013 3.38652 12.7013 3.07167C12.7013 2.75682 12.9624 2.49573 13.2772 2.49573C15.0742 2.49573 16.5409 3.96246 16.5409 5.75939C16.5409 7.52561 15.1587 8.95395 13.4001 9.02306C13.3924 9.02306 13.3848 9.02306 13.3771 9.02306Z" fill="#A0A6B1"/>
<path d="M7.71749 17.3166C6.21237 17.3166 4.69956 16.9327 3.55536 16.1647C2.48795 15.4583 1.90433 14.4907 1.90433 13.4386C1.90433 12.3866 2.48795 11.4113 3.55536 10.6971C5.85912 9.16898 9.59122 9.16898 11.8796 10.6971C12.9394 11.4036 13.5307 12.3712 13.5307 13.4233C13.5307 14.4753 12.947 15.4506 11.8796 16.1647C10.7277 16.9327 9.22262 17.3166 7.71749 17.3166ZM4.19273 11.6647C3.45553 12.1562 3.05621 12.7859 3.05621 13.4463C3.05621 14.099 3.46321 14.7287 4.19273 15.2125C6.10486 16.495 9.33013 16.495 11.2422 15.2125C11.9795 14.7211 12.3788 14.0914 12.3788 13.4309C12.3788 12.7782 11.9718 12.1485 11.2422 11.6647C9.33013 10.39 6.10486 10.39 4.19273 11.6647Z" fill="#A0A6B1"/>
<path d="M14.7593 15.9344C14.4906 15.9344 14.2525 15.7501 14.1988 15.4736C14.1373 15.1588 14.337 14.8593 14.6442 14.7902C15.1279 14.6903 15.5733 14.4984 15.9189 14.2296C16.3566 13.8994 16.5947 13.4847 16.5947 13.047C16.5947 12.6093 16.3566 12.1946 15.9266 11.8721C15.5887 11.611 15.1663 11.4267 14.6672 11.3115C14.36 11.2424 14.1604 10.9352 14.2295 10.6204C14.2986 10.3132 14.6058 10.1135 14.9206 10.1826C15.581 10.3285 16.157 10.5896 16.6254 10.9506C17.3396 11.4881 17.7466 12.2483 17.7466 13.047C17.7466 13.8456 17.3319 14.6059 16.6177 15.1511C16.1416 15.5197 15.5426 15.7885 14.8822 15.919C14.8361 15.9344 14.7977 15.9344 14.7593 15.9344Z" fill="#A0A6B1"/>
</svg>