<svg width="22" height="23" viewBox="0 0 22 23" fill="none" xmlns="http://www.w3.org/2000/svg">
<path d="M17.9891 9.18081C16.3692 9.18081 15.7069 8.03524 16.5124 6.63013C16.9778 5.8157 16.7003 4.77753 15.8859 4.31214L14.3376 3.42611C13.6306 3.00547 12.7177 3.25607 12.2971 3.9631L12.1986 4.13314C11.3931 5.53826 10.0686 5.53826 9.25414 4.13314L9.15569 3.9631C8.75295 3.25607 7.84008 3.00547 7.13305 3.42611L5.58474 4.31214C4.77031 4.77753 4.49287 5.82465 4.95825 6.63908C5.77268 8.03524 5.1104 9.18081 3.49049 9.18081C2.55972 9.18081 1.79004 9.94154 1.79004 10.8813V12.4564C1.79004 13.3872 2.55077 14.1569 3.49049 14.1569C5.1104 14.1569 5.77268 15.3024 4.95825 16.7076C4.49287 17.522 4.77031 18.5602 5.58474 19.0255L7.13305 19.9116C7.84008 20.3322 8.75295 20.0816 9.17359 19.3746L9.27204 19.2045C10.0775 17.7994 11.4021 17.7994 12.2165 19.2045L12.315 19.3746C12.7356 20.0816 13.6485 20.3322 14.3555 19.9116L15.9038 19.0255C16.7182 18.5602 16.9957 17.513 16.5303 16.7076C15.7159 15.3024 16.3781 14.1569 17.9981 14.1569C18.9288 14.1569 19.6985 13.3961 19.6985 12.4564V10.8813C19.6896 9.95049 18.9288 9.18081 17.9891 9.18081ZM10.7398 14.5775C9.13779 14.5775 7.83113 13.2708 7.83113 11.6688C7.83113 10.0668 9.13779 8.76017 10.7398 8.76017C12.3418 8.76017 13.6485 10.0668 13.6485 11.6688C13.6485 13.2708 12.3418 14.5775 10.7398 14.5775Z" fill="white" stroke="white" stroke-width="0.236818"/>
</svg>
