<svg width="14" height="13" viewBox="0 0 14 13" fill="none" xmlns="http://www.w3.org/2000/svg">
<path d="M11.6968 4.24372C11.4771 4.24372 11.2949 4.06153 11.2949 3.84184V2.86663C11.2949 2.47548 10.9788 2.15934 10.5876 2.15934H2.80738C2.41623 2.15934 2.10009 2.47548 2.10009 2.86663V3.8472C2.10009 4.06689 1.9179 4.24907 1.69821 4.24907C1.47852 4.24907 1.29634 4.06689 1.29634 3.84184V2.86663C1.29634 2.03074 1.97685 1.35559 2.80738 1.35559H10.5876C11.4235 1.35559 12.0987 2.0361 12.0987 2.86663V3.8472C12.0987 4.06689 11.9219 4.24372 11.6968 4.24372Z" fill="#6C6C6C"/>
<path d="M6.69748 11.5043C6.47779 11.5043 6.29561 11.3221 6.29561 11.1024V2.20229C6.29561 1.9826 6.47779 1.80042 6.69748 1.80042C6.91717 1.80042 7.09935 1.9826 7.09935 2.20229V11.1024C7.09935 11.3275 6.91717 11.5043 6.69748 11.5043Z" fill="#6C6C6C"/>
<path d="M8.80868 11.5043H4.58634C4.36665 11.5043 4.18446 11.3221 4.18446 11.1024C4.18446 10.8827 4.36665 10.7006 4.58634 10.7006H8.80868C9.02837 10.7006 9.21055 10.8827 9.21055 11.1024C9.21055 11.3221 9.02837 11.5043 8.80868 11.5043Z" fill="#6C6C6C"/>
</svg>
