<svg width="13" height="13" viewBox="0 0 13 13" fill="none" xmlns="http://www.w3.org/2000/svg">
<path d="M8.91123 9.77893H8.10213C7.88244 9.77893 7.70026 9.59675 7.70026 9.37706C7.70026 9.15737 7.88244 8.97519 8.10213 8.97519H8.91123C10.3151 8.97519 11.4564 7.83387 11.4564 6.42999C11.4564 5.02612 10.3151 3.8848 8.91123 3.8848H8.10749C7.8878 3.8848 7.70561 3.70262 7.70561 3.48293C7.70561 3.26324 7.88244 3.08105 8.10749 3.08105H8.91123C10.7598 3.08105 12.2602 4.58138 12.2602 6.42999C12.2602 8.27861 10.7598 9.77893 8.91123 9.77893Z" fill="#6C6C6C"/>
<path d="M4.89251 9.77893H4.08876C2.24015 9.77893 0.739822 8.27861 0.739822 6.42999C0.739822 4.58138 2.24015 3.08105 4.08876 3.08105H4.89251C5.1122 3.08105 5.29438 3.26324 5.29438 3.48293C5.29438 3.70262 5.1122 3.8848 4.89251 3.8848H4.08876C2.68489 3.8848 1.54357 5.02612 1.54357 6.42999C1.54357 7.83387 2.68489 8.97519 4.08876 8.97519H4.89251C5.1122 8.97519 5.29438 9.15737 5.29438 9.37706C5.29438 9.59675 5.1122 9.77893 4.89251 9.77893Z" fill="#6C6C6C"/>
<path d="M8.64332 6.83182H4.35668C4.13699 6.83182 3.9548 6.64964 3.9548 6.42995C3.9548 6.21026 4.13699 6.02808 4.35668 6.02808H8.64332C8.86301 6.02808 9.04519 6.21026 9.04519 6.42995C9.04519 6.64964 8.86301 6.83182 8.64332 6.83182Z" fill="#6C6C6C"/>
</svg>
