<svg width="14" height="13" viewBox="0 0 14 13" fill="none" xmlns="http://www.w3.org/2000/svg">
<path d="M10.5068 3.57935C10.2871 3.57935 10.1049 3.39717 10.1049 3.17748V2.36838C10.1049 2.04688 9.84239 1.77896 9.51553 1.77896H2.58725C2.26575 1.77896 1.99783 2.04152 1.99783 2.36838V3.17748C1.99783 3.39717 1.81565 3.57935 1.59596 3.57935C1.37627 3.57935 1.19945 3.39717 1.19945 3.17748V2.36838C1.19945 1.60214 1.82637 0.97522 2.59261 0.97522H9.51553C10.2818 0.97522 10.9087 1.59678 10.9087 2.36838V3.17748C10.9087 3.39717 10.7265 3.57935 10.5068 3.57935Z" fill="#6C6C6C"/>
<path d="M6.05409 10.1004C5.8344 10.1004 5.65222 9.91821 5.65222 9.69852V1.77895C5.65222 1.55926 5.8344 1.37708 6.05409 1.37708C6.27378 1.37708 6.45597 1.55926 6.45597 1.77895V9.69852C6.45597 9.92357 6.27378 10.1004 6.05409 10.1004Z" fill="#6C6C6C"/>
<path d="M7.22219 10.1004H4.23226C4.01257 10.1004 3.83038 9.91819 3.83038 9.6985C3.83038 9.47881 4.01257 9.29663 4.23226 9.29663H7.22219C7.44188 9.29663 7.62406 9.47881 7.62406 9.6985C7.62406 9.91819 7.44188 10.1004 7.22219 10.1004Z" fill="#6C6C6C"/>
<path d="M12.3287 7.07301C12.109 7.07301 11.9268 6.89082 11.9268 6.67113V6.24247C11.9268 6.07636 11.7875 5.93705 11.6214 5.93705H7.86521C7.64552 5.93705 7.46333 5.75486 7.46333 5.53517C7.46333 5.31548 7.64552 5.1333 7.86521 5.1333H11.6214C12.2322 5.1333 12.7305 5.63162 12.7305 6.24247V6.67113C12.7305 6.89618 12.5537 7.07301 12.3287 7.07301Z" fill="#6C6C6C"/>
<path d="M9.15114 11.8847C8.93145 11.8847 8.74927 11.7025 8.74927 11.4828V5.82448C8.74927 5.60479 8.93145 5.42261 9.15114 5.42261C9.37083 5.42261 9.55301 5.60479 9.55301 5.82448V11.4828C9.55301 11.7025 9.37083 11.8847 9.15114 11.8847Z" fill="#6C6C6C"/>
<path d="M10.2978 11.8847H8.00446C7.78477 11.8847 7.60258 11.7025 7.60258 11.4828C7.60258 11.2631 7.78477 11.0809 8.00446 11.0809H10.2978C10.5175 11.0809 10.6997 11.2631 10.6997 11.4828C10.6997 11.7025 10.5175 11.8847 10.2978 11.8847Z" fill="#6C6C6C"/>
</svg>
