<svg width="13" height="13" viewBox="0 0 13 13" fill="none" xmlns="http://www.w3.org/2000/svg">
<path d="M10.1165 2.00931H5.15469C4.935 2.00931 4.75818 1.82713 4.75818 1.60744C4.75818 1.38775 4.94036 1.20557 5.16005 1.20557H10.1165C10.3362 1.20557 10.5184 1.38775 10.5184 1.60744C10.5184 1.82713 10.3362 2.00931 10.1165 2.00931Z" fill="#6C6C6C"/>
<path d="M7.70523 11.6543H2.74344C2.52375 11.6543 2.34157 11.4721 2.34157 11.2525C2.34157 11.0328 2.52375 10.8506 2.74344 10.8506H7.69987C7.91956 10.8506 8.10174 11.0328 8.10174 11.2525C8.10174 11.4721 7.92492 11.6543 7.70523 11.6543Z" fill="#6C6C6C"/>
<path d="M5.22434 11.6543C5.19219 11.6543 5.16004 11.6489 5.12789 11.6435C4.91355 11.59 4.7796 11.3703 4.83318 11.1559L7.24442 1.51099C7.298 1.29666 7.51233 1.1627 7.73202 1.21628C7.94635 1.26987 8.08031 1.48956 8.02673 1.70389L5.61549 11.3488C5.56727 11.531 5.40652 11.6543 5.22434 11.6543Z" fill="#6C6C6C"/>
</svg>
