<svg width="14" height="13" viewBox="0 0 14 13" fill="none" xmlns="http://www.w3.org/2000/svg">
<path d="M11.8575 2.81314H2.21256C1.99287 2.81314 1.81069 2.63096 1.81069 2.41127C1.81069 2.19158 1.99287 2.0094 2.21256 2.0094H11.8575C12.0772 2.0094 12.2594 2.19158 12.2594 2.41127C12.2594 2.63096 12.0772 2.81314 11.8575 2.81314Z" fill="#6C6C6C"/>
<path d="M9.57487 5.49222H4.4952C4.27551 5.49222 4.09333 5.31004 4.09333 5.09035C4.09333 4.87066 4.27551 4.68848 4.4952 4.68848H9.56952C9.78921 4.68848 9.97139 4.87066 9.97139 5.09035C9.97139 5.31004 9.79456 5.49222 9.57487 5.49222Z" fill="#6C6C6C"/>
<path d="M11.8575 8.17142H2.21256C1.99287 8.17142 1.81069 7.98924 1.81069 7.76955C1.81069 7.54986 1.99287 7.36768 2.21256 7.36768H11.8575C12.0772 7.36768 12.2594 7.54986 12.2594 7.76955C12.2594 7.98924 12.0772 8.17142 11.8575 8.17142Z" fill="#6C6C6C"/>
<path d="M9.57487 10.8506H4.4952C4.27551 10.8506 4.09333 10.6684 4.09333 10.4487C4.09333 10.2291 4.27551 10.0469 4.4952 10.0469H9.56952C9.78921 10.0469 9.97139 10.2291 9.97139 10.4487C9.97139 10.6684 9.79456 10.8506 9.57487 10.8506Z" fill="#6C6C6C"/>
</svg>
