<svg width="13" height="13" viewBox="0 0 13 13" fill="none" xmlns="http://www.w3.org/2000/svg">
<path d="M11.3925 2.81314H6.57007C6.35038 2.81314 6.1682 2.63096 6.1682 2.41127C6.1682 2.19158 6.35038 2.0094 6.57007 2.0094H11.3925C11.6122 2.0094 11.7944 2.19158 11.7944 2.41127C11.7944 2.63096 11.6122 2.81314 11.3925 2.81314Z" fill="#6C6C6C"/>
<path d="M11.3925 5.49222H6.57007C6.35038 5.49222 6.1682 5.31004 6.1682 5.09035C6.1682 4.87066 6.35038 4.68848 6.57007 4.68848H11.3925C11.6122 4.68848 11.7944 4.87066 11.7944 5.09035C11.7944 5.31004 11.6122 5.49222 11.3925 5.49222Z" fill="#6C6C6C"/>
<path d="M11.3925 8.17142H1.74759C1.5279 8.17142 1.34572 7.98924 1.34572 7.76955C1.34572 7.54986 1.5279 7.36768 1.74759 7.36768H11.3925C11.6122 7.36768 11.7944 7.54986 11.7944 7.76955C11.7944 7.98924 11.6122 8.17142 11.3925 8.17142Z" fill="#6C6C6C"/>
<path d="M11.3925 10.8506H1.74759C1.5279 10.8506 1.34572 10.6684 1.34572 10.4487C1.34572 10.2291 1.5279 10.0469 1.74759 10.0469H11.3925C11.6122 10.0469 11.7944 10.2291 11.7944 10.4487C11.7944 10.6684 11.6122 10.8506 11.3925 10.8506Z" fill="#6C6C6C"/>
</svg>
