<svg width="14" height="13" viewBox="0 0 14 13" fill="none" xmlns="http://www.w3.org/2000/svg">
<path d="M11.59 2.81314H1.94504C1.72535 2.81314 1.54317 2.63096 1.54317 2.41127C1.54317 2.19158 1.72535 2.0094 1.94504 2.0094H11.59C11.8097 2.0094 11.9919 2.19158 11.9919 2.41127C11.9919 2.63096 11.8097 2.81314 11.59 2.81314Z" fill="#6C6C6C"/>
<path d="M7.01936 5.49222H1.94504C1.72535 5.49222 1.54317 5.31004 1.54317 5.09035C1.54317 4.87066 1.72535 4.68848 1.94504 4.68848H7.01936C7.23905 4.68848 7.42123 4.87066 7.42123 5.09035C7.42123 5.31004 7.2444 5.49222 7.01936 5.49222Z" fill="#6C6C6C"/>
<path d="M11.59 8.17142H1.94504C1.72535 8.17142 1.54317 7.98924 1.54317 7.76955C1.54317 7.54986 1.72535 7.36768 1.94504 7.36768H11.59C11.8097 7.36768 11.9919 7.54986 11.9919 7.76955C11.9919 7.98924 11.8097 8.17142 11.59 8.17142Z" fill="#6C6C6C"/>
<path d="M7.01936 10.8506H1.94504C1.72535 10.8506 1.54317 10.6684 1.54317 10.4487C1.54317 10.2291 1.72535 10.0469 1.94504 10.0469H7.01936C7.23905 10.0469 7.42123 10.2291 7.42123 10.4487C7.42123 10.6684 7.2444 10.8506 7.01936 10.8506Z" fill="#6C6C6C"/>
</svg>
