<svg width="14" height="13" viewBox="0 0 14 13" fill="none" xmlns="http://www.w3.org/2000/svg">
<path d="M12.125 2.81314H2.48008C2.26039 2.81314 2.07821 2.63096 2.07821 2.41127C2.07821 2.19158 2.26039 2.0094 2.48008 2.0094H12.125C12.3447 2.0094 12.5269 2.19158 12.5269 2.41127C12.5269 2.63096 12.3447 2.81314 12.125 2.81314Z" fill="#6C6C6C"/>
<path d="M12.125 5.49222H7.05073C6.83104 5.49222 6.64885 5.31004 6.64885 5.09035C6.64885 4.87066 6.83104 4.68848 7.05073 4.68848H12.125C12.3447 4.68848 12.5269 4.87066 12.5269 5.09035C12.5269 5.31004 12.3447 5.49222 12.125 5.49222Z" fill="#6C6C6C"/>
<path d="M12.125 8.17142H2.48008C2.26039 8.17142 2.07821 7.98924 2.07821 7.76955C2.07821 7.54986 2.26039 7.36768 2.48008 7.36768H12.125C12.3447 7.36768 12.5269 7.54986 12.5269 7.76955C12.5269 7.98924 12.3447 8.17142 12.125 8.17142Z" fill="#6C6C6C"/>
<path d="M12.125 10.8506H7.05073C6.83104 10.8506 6.64885 10.6684 6.64885 10.4487C6.64885 10.2291 6.83104 10.0469 7.05073 10.0469H12.125C12.3447 10.0469 12.5269 10.2291 12.5269 10.4487C12.5269 10.6684 12.3447 10.8506 12.125 10.8506Z" fill="#6C6C6C"/>
</svg>
