<svg width="14" height="13" viewBox="0 0 14 13" fill="none" xmlns="http://www.w3.org/2000/svg">
<path d="M7.23249 6.83188H3.41738C3.19769 6.83188 3.01551 6.64969 3.01551 6.43V2.41128C3.01551 1.59682 3.67458 0.937744 4.48904 0.937744H7.23249C8.85606 0.937744 10.1796 2.26124 10.1796 3.88481C10.1796 5.50838 8.85606 6.83188 7.23249 6.83188ZM3.8139 6.02813H7.23249C8.41668 6.02813 9.37581 5.06899 9.37581 3.88481C9.37581 2.70063 8.41668 1.74149 7.23249 1.74149H4.48904C4.11932 1.74149 3.81926 2.04155 3.81926 2.41128V6.02813H3.8139Z" fill="#6C6C6C"/>
<path d="M8.50777 11.9222H4.48904C3.67458 11.9222 3.01551 11.2631 3.01551 10.4487V6.42995C3.01551 6.21026 3.19769 6.02808 3.41738 6.02808H8.50777C10.1313 6.02808 11.4548 7.35158 11.4548 8.97514C11.4548 10.5987 10.1313 11.9222 8.50777 11.9222ZM3.8139 6.83182V10.4487C3.8139 10.8184 4.11396 11.1185 4.48369 11.1185H8.50241C9.6866 11.1185 10.6457 10.1593 10.6457 8.97514C10.6457 7.79096 9.6866 6.83182 8.50241 6.83182H3.8139Z" fill="#6C6C6C"/>
</svg>
